<svg fill="#fff" xmlns="http://www.w3.org/2000/svg" xmlns:xlink="http://www.w3.org/1999/xlink" version="1.1" x="0px"
  y="0px" viewBox="0 0 100 125" style="enable-background:new 0 0 100 100;"
  xml:space="preserve"><g style="" display="none"><rect x="-363.066" y="-497.496" style="" width="1220.125" height="990.055" display="inline" fill="#CCCCFF" stroke="#000000" stroke-width="4" stroke-miterlimit="10"/></g><g><path d="M12.821,95h10.436V71.721c0-3.554,1.667-6.957,4.604-8.96c2.477-1.69,5.735-2.715,9.309-2.715   c7.017,0,12.817,3.955,13.876,9.123l-0.881-0.887c-1.649-1.661-3.816-2.492-5.983-2.492c-2.167,0-4.334,0.83-5.983,2.492   c-3.299,3.322-3.299,8.728,0,12.05l13.522,13.616l0.14-0.141L52,93.948l13.522-13.616c3.299-3.322,3.299-8.728,0-12.05   c-1.65-1.661-3.816-2.492-5.983-2.492c-2.167,0-4.334,0.83-5.983,2.492l-0.67,0.675c1.194-4.255,6.085-7.449,11.973-7.449   c1.205,0,2.369,0.134,3.468,0.383c4.958,1.123,8.416,5.626,8.416,10.71V95h10.93V54.261h4.885c2.078,0,3.145-2.485,1.699-3.987   L50.724,5L32.361,23.492v-7.125H21.705v17.848l-2.581,2.596L5.76,50.274c-1.46,1.474-0.421,3.973,1.642,3.987h5.419V95z    M64.859,40.699c4.175,0,7.56,3.949,7.56,8.82c0,4.871-3.385,8.82-7.56,8.82c-4.175,0-7.56-3.949-7.56-8.82   C57.299,44.648,60.684,40.699,64.859,40.699z M37.169,36.219c4.781,0,8.657,4.522,8.657,10.1s-3.876,10.1-8.657,10.1   c-4.781,0-8.657-4.522-8.657-10.1S32.388,36.219,37.169,36.219z"/></g>
</svg>
