<?xml version="1.0" encoding="UTF-8" standalone="no"?>
<svg
   xmlns:dc="http://purl.org/dc/elements/1.1/"
   xmlns:cc="http://creativecommons.org/ns#"
   xmlns:rdf="http://www.w3.org/1999/02/22-rdf-syntax-ns#"
   xmlns:svg="http://www.w3.org/2000/svg"
   xmlns="http://www.w3.org/2000/svg"
   xmlns:sodipodi="http://sodipodi.sourceforge.net/DTD/sodipodi-0.dtd"
   xmlns:inkscape="http://www.inkscape.org/namespaces/inkscape"
   version="1.1"
   x="0px"
   y="0px"
   viewBox="0 0 93.844704 94"
   style="fill:#ffffff"
   xml:space="preserve"
   id="svg10"
   sodipodi:docname="Logo_alternative.svg"
   width="93.844704"
   height="94"
   inkscape:version="0.92.2 5c3e80d, 2017-08-06"><metadata
     id="metadata16"><rdf:RDF><cc:Work
         rdf:about=""><dc:format>image/svg+xml</dc:format><dc:type
           rdf:resource="http://purl.org/dc/dcmitype/StillImage" /><dc:title></dc:title></cc:Work></rdf:RDF></metadata><defs
     id="defs14" /><sodipodi:namedview
     pagecolor="#ffffff"
     bordercolor="#666666"
     borderopacity="1"
     objecttolerance="10"
     gridtolerance="10"
     guidetolerance="10"
     inkscape:pageopacity="0"
     inkscape:pageshadow="2"
     inkscape:window-width="2560"
     inkscape:window-height="1348"
     id="namedview12"
     showgrid="false"
     fit-margin-top="2"
     fit-margin-left="2"
     fit-margin-right="2"
     fit-margin-bottom="2"
     inkscape:zoom="3.776"
     inkscape:cx="-0.71447951"
     inkscape:cy="46.595837"
     inkscape:window-x="0"
     inkscape:window-y="54"
     inkscape:window-maximized="1"
     inkscape:current-layer="svg10" /><g
     style="display:none"
     display="none"
     id="g4"
     transform="translate(-3.0777095,-3)"><rect
       x="-363.06601"
       y="-497.496"
       style="display:inline;fill:#ccccff;stroke:#000000;stroke-width:4;stroke-miterlimit:10"
       width="1220.125"
       height="990.05499"
       display="inline"
       stroke-miterlimit="10"
       id="rect2" /></g><path
     inkscape:connector-curvature="0"
     id="path6"
     d="m -330.03425,43.800847 h 10.436 v -23.279 c 0,-3.554 1.667,-6.957 4.604,-8.96 2.477,-1.6899996 5.735,-2.7149996 9.309,-2.7149996 7.017,0 12.817,3.9549996 13.876,9.1229996 l -0.881,-0.887 c -1.649,-1.661 -3.816,-2.492 -5.983,-2.492 -2.167,0 -4.334,0.83 -5.983,2.492 -3.299,3.322 -3.299,8.728 0,12.05 l 13.522,13.616 0.14,-0.141 0.139,0.141 13.522,-13.616 c 3.299,-3.322 3.299,-8.728 0,-12.05 -1.65,-1.661 -3.816,-2.492 -5.983,-2.492 -2.167,0 -4.334,0.83 -5.983,2.492 l -0.67,0.675 c 1.194,-4.255 6.085,-7.449 11.973,-7.449 1.205,0 2.369,0.134 3.468,0.383 4.958,1.123 8.416,5.626 8.416,10.71 v 22.399 h 10.93 V 3.0618474 h 4.885 c 2.078,0 3.145,-2.48500001 1.699,-3.98700001 l -43.533,-45.27400039 -18.363,18.492 v -7.125 h -10.656 v 17.848 l -2.581,2.596 -13.364,13.46300039 c -1.46,1.474 -0.421,3.97300001 1.642,3.98700001 h 5.419 z m 52.038,-54.301 c 4.175,0 7.56,3.9490004 7.56,8.8200004 0,4.871 -3.385,8.82 -7.56,8.82 -4.175,0 -7.56,-3.949 -7.56,-8.82 0,-4.871 3.385,-8.8200004 7.56,-8.8200004 z m -27.69,-4.48 c 4.781,0 8.657,4.522 8.657,10.1000004 0,5.57799999 -3.876,10.1 -8.657,10.1 -4.781,0 -8.657,-4.52200001 -8.657,-10.1 0,-5.5780004 3.876,-10.1000004 8.657,-10.1000004 z"
     style="fill:#000000;fill-opacity:1" /><path
     style="fill:#090000;fill-opacity:1;fill-rule:nonzero;stroke:none;stroke-width:0.13333334"
     d="M 32.029297 2.53125 L 32.029297 33.519531 C 32.691565 33.330233 33.379586 33.21875 34.091797 33.21875 C 36.566054 33.21875 38.791637 34.436691 40.369141 36.378906 L 40.369141 2.53125 L 32.029297 2.53125 z M 42.751953 2.53125 L 42.751953 59.357422 C 45.481267 61.007719 47.403722 63.412541 47.96875 66.169922 L 47.087891 65.283203 C 45.859249 64.045627 44.341845 63.270757 42.751953 62.955078 L 42.751953 85.017578 L 48.642578 90.949219 L 48.783203 90.806641 L 48.921875 90.949219 L 51.091797 88.763672 L 51.091797 64.726562 C 50.881349 64.901078 50.675128 65.085041 50.478516 65.283203 L 49.808594 65.957031 C 50.067887 65.032999 50.511479 64.163458 51.091797 63.361328 L 51.091797 2.53125 L 42.751953 2.53125 z M 53.474609 2.53125 L 53.474609 61.021484 C 55.655408 59.464367 58.566531 58.507812 61.78125 58.507812 C 61.792533 58.507812 61.803178 58.509742 61.814453 58.509766 L 61.814453 55.337891 C 61.803262 55.337947 61.792452 55.339844 61.78125 55.339844 C 57.60625 55.339844 54.220703 51.390532 54.220703 46.519531 C 54.220703 41.648532 57.60625 37.699219 61.78125 37.699219 C 61.792452 37.699219 61.803262 37.701115 61.814453 37.701172 L 61.814453 2.53125 L 53.474609 2.53125 z M 21.308594 22.449219 L 21.308594 63.826172 C 22.093117 62.213421 23.26353 60.798118 24.783203 59.761719 C 26.181304 58.807827 27.834484 58.076724 29.646484 57.611328 L 29.646484 51.974609 C 27.126291 50.208933 25.433594 46.999348 25.433594 43.320312 C 25.433594 39.641277 27.126291 36.430318 29.646484 34.664062 L 29.646484 22.449219 L 21.308594 22.449219 z M 64.197266 22.449219 L 64.197266 38.167969 C 67.186265 39.344983 69.341797 42.635475 69.341797 46.519531 C 69.341797 50.403589 67.186265 53.69408 64.197266 54.871094 L 64.197266 58.712891 C 64.54993 58.767417 64.907024 58.813359 65.248047 58.890625 C 68.522896 59.632385 71.135351 61.853566 72.537109 64.738281 L 72.537109 22.449219 L 64.197266 22.449219 z M 10.585938 42.464844 L 10.585938 91.867188 L 18.925781 91.867188 L 18.925781 42.464844 L 10.585938 42.464844 z M 74.917969 42.464844 L 74.917969 91.867188 L 83.257812 91.867188 L 83.257812 42.464844 L 74.917969 42.464844 z M 40.369141 50.259766 C 38.791637 52.201476 36.566054 53.419922 34.091797 53.419922 C 33.379512 53.419922 32.691628 53.308403 32.029297 53.119141 L 32.029297 57.173828 C 32.703913 57.097348 33.389198 57.046875 34.091797 57.046875 C 36.350568 57.046875 38.479988 57.461276 40.369141 58.189453 L 40.369141 50.259766 z M 56.460938 62.791016 C 55.447039 62.791016 54.435316 62.980106 53.474609 63.34375 L 53.474609 86.365234 L 61.814453 77.964844 L 61.814453 64.708984 C 60.26283 63.430755 58.361824 62.791016 56.460938 62.791016 z M 40.369141 62.826172 C 38.453551 62.992934 36.583342 63.809427 35.121094 65.283203 C 31.822094 68.605204 31.822094 74.010031 35.121094 77.332031 L 40.369141 82.617188 L 40.369141 62.826172 z M 64.197266 67.878906 L 64.197266 74.736328 C 65.146834 72.556167 65.146834 70.059067 64.197266 67.878906 z "
     id="path855" /><path
     style="fill:#231f20;fill-opacity:1;fill-rule:nonzero;stroke:none;stroke-width:0.13333334"
     d="m -140.15741,26.292261 v 89.334969 h 8.33985 V 26.292261 Z m 10.72266,0 v 89.334549 h 8.33984 V 26.292261 Z m 10.72265,0 v 89.334969 h 8.33985 V 26.292261 Z m -32.16601,19.917969 v 69.41658 l 8.33789,4.2e-4 v -69.417 z m 42.88867,0 v 69.41658 h 8.339843 V 46.21023 Z m -53.61133,20.015625 v 49.401375 h 8.33985 V 66.225855 Z m 64.332033,0 v 49.401375 h 8.339843 V 66.225855 Z"
     id="path855-6"
     inkscape:connector-curvature="0"
     sodipodi:nodetypes="ccccccccccccccccccccccccccccccccccc" /><path
     style="fill:#090000;fill-opacity:1;fill-rule:nonzero;stroke:none;stroke-width:0.13333334"
     d="m -88.78029,-110.42717 v 89.334967 h 8.339844 v -89.334967 z m 10.722656,0 v 89.334547 h 8.339844 v -89.334547 z m 10.722656,0 v 89.334967 h 8.339844 v -89.334967 z m -32.166015,19.917967 v 69.41658 l 8.33789,4.2e-4 v -69.417 z m 42.888672,0 v 69.41658 h 8.339843 v -69.41658 z m -53.611329,20.015625 v 49.401375 h 8.33984 v -49.401375 z m 64.332032,0 v 49.401375 h 8.339843 v -49.401375 z"
     id="path855-7"
     inkscape:connector-curvature="0"
     sodipodi:nodetypes="ccccccccccccccccccccccccccccccccccc" /><path
     style="fill:#ffffff;fill-opacity:1"
     d="m -47.145527,-20.958422 v -22.398437 c 0,-5.084001 -3.45801,-9.587939 -8.41602,-10.710938 -1.099,-0.249001 -2.2618,-0.382813 -3.46679,-0.382813 -5.88801,0 -10.77866,3.194219 -11.97266,7.44922 l 0.66992,-0.673829 c 1.649,-1.662 3.81542,-2.492188 5.98242,-2.492188 2.167,0 4.33242,0.831187 5.98242,2.492188 3.29901,3.322001 3.29901,8.726829 0,12.048829 l -13.52148,13.617187 -0.13867,-0.142578 -0.14063,0.142578 -13.52148,-13.617187 c -3.299,-3.322 -3.299,-8.726828 0,-12.048829 1.649,-1.662 3.81542,-2.492188 5.98242,-2.492188 2.167,0 4.33537,0.831187 5.98438,2.492188 l 0.88086,0.886719 c -1.059,-5.168001 -6.85996,-9.123047 -13.87696,-9.123047 -3.574,0 -6.83159,1.024843 -9.30859,2.714843 -2.937,2.003 -4.603513,5.404984 -4.603513,8.958985 v 23.279297 z m -39.57227,-58.78125 c -4.781,0 -8.6582,4.523563 -8.6582,10.101563 0,5.578 3.8772,10.099608 8.6582,10.099608 4.781,0 8.65625,-4.521608 8.65625,-10.099608 0,-5.578 -3.87525,-10.101563 -8.65625,-10.101563 z m 27.68946,4.480469 c -4.175,0 -7.56055,3.949313 -7.56055,8.820312 0,4.871001 3.38555,8.820313 7.56055,8.820313 4.175,0 7.56054,-3.949312 7.56054,-8.820313 0,-4.870999 -3.38554,-8.820312 -7.56054,-8.820312 z"
     id="path6-3-5"
     inkscape:connector-curvature="0"
     sodipodi:nodetypes="cscsccscccccccsccscsccssssssssss" /></svg>